<svg width="24" height="24" viewBox="0 0 24 24" fill="none" xmlns="http://www.w3.org/2000/svg">
<path d="M5.79968 1C5.35772 1 4.92235 1.15849 4.55955 1.44906L4.50677 1.47548L4.48039 1.50189L1.8418 4.22267L1.86818 4.24909C1.05352 5.00193 0.802852 6.12788 1.15576 7.10195C1.15906 7.10855 1.15247 7.12176 1.15576 7.12836C1.87148 9.17886 3.702 13.1379 7.2773 16.7171C10.8658 20.3096 14.8731 22.0696 16.8554 22.8455H16.8818C17.9075 23.1889 19.019 22.9446 19.8106 22.2644L22.4756 19.5964C23.1748 18.8964 23.1748 17.6813 22.4756 16.9813L19.0454 13.5473L19.019 13.4945C18.3198 12.7945 17.0797 12.7945 16.3804 13.4945L14.6917 15.185C14.0816 14.8912 12.627 14.1383 11.2352 12.8077C9.85322 11.4869 9.1474 9.96801 8.88684 9.37367L10.5755 7.68309C11.2847 6.97317 11.2978 5.79109 10.5491 5.09438L10.5755 5.06797L10.4964 4.98872L7.11898 1.50189L7.09259 1.47548L7.03982 1.44906C6.67702 1.15849 6.24165 1 5.79968 1ZM5.79968 2.69058C5.86235 2.69058 5.92502 2.7203 5.98439 2.76983L9.36178 6.23024L9.44094 6.30949C9.43434 6.30288 9.49041 6.39204 9.38817 6.4944L7.2773 8.60762L6.88151 8.97744L7.06621 9.50575C7.06621 9.50575 8.03589 12.1044 10.0742 14.0492L10.2589 14.2077C12.2214 16.0006 14.5334 16.9813 14.5334 16.9813L15.0611 17.219L17.5678 14.7096C17.7129 14.5643 17.6865 14.5643 17.8317 14.7096L21.2882 18.17C21.4333 18.3153 21.4333 18.2624 21.2882 18.4077L18.7024 20.9964C18.3132 21.3299 17.9009 21.3993 17.4095 21.2342C15.4965 20.4813 11.7794 18.8469 8.46466 15.5284C5.12355 12.1836 3.37878 8.3897 2.73892 6.54723C2.61029 6.20383 2.70264 5.69533 3.00278 5.43778L3.05555 5.38495L5.61498 2.76983C5.67435 2.7203 5.73702 2.69058 5.79968 2.69058Z" fill="#FCFCFD"/>
</svg>
