<svg width="30" height="30" viewBox="0 0 30 30" fill="none" xmlns="http://www.w3.org/2000/svg">
<g id="icons8-phone 1">
<path id="Vector" d="M8.14731 2.86621C7.65877 2.86621 7.17752 3.04121 6.77648 3.36204L6.71814 3.39121L6.68898 3.42038L3.77231 6.42454L3.80148 6.45371C2.90096 7.28496 2.62387 8.52819 3.01398 9.60371C3.01762 9.611 3.01033 9.62559 3.01398 9.63288C3.80512 11.8969 5.82856 16.2683 9.78064 20.2204C13.7473 24.187 18.177 26.1303 20.3681 26.987H20.3973C21.5312 27.3662 22.7598 27.0964 23.6348 26.3454L26.5806 23.3995C27.3536 22.6266 27.3536 21.285 26.5806 20.512L22.789 16.7204L22.7598 16.662C21.9869 15.8891 20.6161 15.8891 19.8431 16.662L17.9765 18.5287C17.302 18.2042 15.6942 17.373 14.1556 15.9037C12.628 14.4454 11.8478 12.7683 11.5598 12.112L13.4265 10.2454C14.2103 9.46152 14.2249 8.15632 13.3973 7.38704L13.4265 7.35788L13.339 7.27038L9.60564 3.42038L9.57648 3.39121L9.51814 3.36204C9.1171 3.04121 8.63585 2.86621 8.14731 2.86621ZM8.14731 4.73288C8.21658 4.73288 8.28585 4.76569 8.35148 4.82038L12.0848 8.64121L12.1723 8.72871C12.165 8.72142 12.227 8.81986 12.114 8.93288L9.78064 11.2662L9.34314 11.6745L9.54731 12.2579C9.54731 12.2579 10.6192 15.1271 12.8723 17.2745L13.0765 17.4495C15.2457 19.4292 17.8015 20.512 17.8015 20.512L18.3848 20.7745L21.1556 18.0037C21.3161 17.8433 21.2869 17.8433 21.4473 18.0037L25.2681 21.8245C25.4286 21.985 25.4286 21.9266 25.2681 22.087L22.4098 24.9454C21.9796 25.3136 21.5239 25.3902 20.9806 25.2079C18.8661 24.3766 14.7572 22.5719 11.0931 18.9079C7.39991 15.2146 5.47127 11.0256 4.76398 8.99121C4.62179 8.61204 4.72387 8.05059 5.05564 7.76621L5.11398 7.70788L7.94314 4.82038C8.00877 4.76569 8.07804 4.73288 8.14731 4.73288Z" fill="white"/>
</g>
</svg>
