<svg width="32" height="32" viewBox="0 0 32 32" fill="none" xmlns="http://www.w3.org/2000/svg">
<g clip-path="url(#clip0_58_7)">
<path d="M13.216 8.064C12.834 3.67 8.25001 1.514 8.05601 1.426C7.87465 1.34075 7.67141 1.31351 7.47401 1.348C2.18201 2.226 1.38601 5.306 1.35401 5.434C1.31047 5.61237 1.3174 5.79934 1.37401 5.974C7.68601 25.558 20.804 29.188 25.116 30.382C25.448 30.474 25.722 30.548 25.93 30.616C26.1674 30.6936 26.4253 30.6786 26.652 30.574C26.784 30.514 29.9 29.046 30.662 24.258C30.6958 24.049 30.6622 23.8346 30.566 23.646C30.498 23.514 28.868 20.412 24.348 19.316C24.1947 19.2768 24.0341 19.2754 23.8801 19.312C23.7261 19.3486 23.5833 19.422 23.464 19.526C22.038 20.744 20.068 22.042 19.218 22.176C13.52 19.39 10.338 14.044 10.218 13.03C10.148 12.46 11.454 10.458 12.956 8.83C13.0504 8.72754 13.1223 8.60645 13.1671 8.47452C13.2119 8.3426 13.2285 8.20276 13.216 8.064Z" fill="#E4002B"/>
</g>
<defs>
<clipPath id="clip0_58_7">
<rect width="32" height="32" fill="white"/>
</clipPath>
</defs>
</svg>
